HIERARCHY
ROOT root
{
	OFFSET	0	13.1	24.9
	CHANNELS 6  Xposition Yposition Zposition Xrotation Yrotation Zrotation
	JOINT spine_1
	{
		OFFSET	0	9.99999	0
		CHANNELS 3  Xrotation Yrotation Zrotation
		JOINT spine_2
		{
			OFFSET	0	112	-10
			CHANNELS 3  Xrotation Yrotation Zrotation
			JOINT spine_3
			{
				OFFSET	0	206.5	19.3
				CHANNELS 3  Xrotation Yrotation Zrotation
				JOINT spine_4
				{
					OFFSET	0	110.4	14.6
					CHANNELS 3  Xrotation Yrotation Zrotation
					JOINT neck_1
					{
						OFFSET	0	71.8	-50.3
						CHANNELS 3  Xrotation Yrotation Zrotation
						JOINT neck_2
						{
							OFFSET	0	86.2	-25.8
							CHANNELS 3  Xrotation Yrotation Zrotation
							JOINT head_ee
							{
								OFFSET	0	179.8	-8.7
								CHANNELS 3  Xrotation Yrotation Zrotation
								End Site
								{
									OFFSET	1	0	0
								}
							}
						}
					}
					JOINT left_clavicle
					{
						OFFSET	-43.2	22.4	-70.8
						CHANNELS 3  Xrotation Yrotation Zrotation
						JOINT left_shoulder
						{
							OFFSET	-93.9	-5.79999	48.7
							CHANNELS 3  Xrotation Yrotation Zrotation
							JOINT left_elbow
							{
								OFFSET	-291.4	-30.8	15.2
								CHANNELS 3  Xrotation Yrotation Zrotation
								JOINT left_lowarm_twist
								{
									OFFSET	-110.7	-3.89999	13.6
									CHANNELS 3  Xrotation Yrotation Zrotation
									JOINT left_hand
									{
										OFFSET	-110.7	-3.89999	13.6
										CHANNELS 3  Xrotation Yrotation Zrotation
										JOINT left_ee
										{
											OFFSET	-80.8	-5.10001	12.1
											CHANNELS 3  Xrotation Yrotation Zrotation
											End Site
											{
												OFFSET	1	0	0
											}
										}
									}
								}
							}
						}
					}
					JOINT right_clavicle
					{
						OFFSET	43.2	22.4	-70.8
						CHANNELS 3  Xrotation Yrotation Zrotation
						JOINT right_shoulder
						{
							OFFSET	93.9	-5.79999	48.7
							CHANNELS 3  Xrotation Yrotation Zrotation
							JOINT right_elbow
							{
								OFFSET	291.4	-30.8	15.2
								CHANNELS 3  Xrotation Yrotation Zrotation
								JOINT right_lowarm_twist
								{
									OFFSET	110.7	-3.89999	13.6
									CHANNELS 3  Xrotation Yrotation Zrotation
									JOINT right_hand
									{
										OFFSET	110.7	-3.89999	13.6
										CHANNELS 3  Xrotation Yrotation Zrotation
										JOINT right_ee
										{
											OFFSET	80.8	-5.10001	12.1
											CHANNELS 3  Xrotation Yrotation Zrotation
											End Site
											{
												OFFSET	1	0	0
											}
										}
									}
								}
							}
						}
					}
				}
			}
		}
	}
	JOINT left_hip
	{
		OFFSET	-82.8	-127.5	0.300001
		CHANNELS 3  Xrotation Yrotation Zrotation
		JOINT left_knee
		{
			OFFSET	-28.2	-396.7	2.2
			CHANNELS 3  Xrotation Yrotation Zrotation
			JOINT left_ankle
			{
				OFFSET	-11.7	-411.3	35.4
				CHANNELS 3  Xrotation Yrotation Zrotation
				JOINT left_toes
				{
					OFFSET	0	-60	-88.6
					CHANNELS 3  Xrotation Yrotation Zrotation
					JOINT left_foot_ee
					{
						OFFSET	-22.5	-16.5	-42.2
						CHANNELS 3  Xrotation Yrotation Zrotation
						End Site
						{
							OFFSET	1	0	0
						}
					}
				}
			}
		}
	}
	JOINT right_hip
	{
		OFFSET	82.8	-127.5	0.300001
		CHANNELS 3  Xrotation Yrotation Zrotation
		JOINT right_knee
		{
			OFFSET	28.2	-396.7	2.2
			CHANNELS 3  Xrotation Yrotation Zrotation
			JOINT right_ankle
			{
				OFFSET	11.7	-411.3	35.4
				CHANNELS 3  Xrotation Yrotation Zrotation
				JOINT right_toes
				{
					OFFSET	0	-60	-88.6
					CHANNELS 3  Xrotation Yrotation Zrotation
					JOINT right_foot_ee
					{
						OFFSET	22.5	-16.5	-42.2
						CHANNELS 3  Xrotation Yrotation Zrotation
						End Site
						{
							OFFSET	1	0	0
						}
					}
				}
			}
		}
	}
}
MOTION
Frames: 8
Frame Time: 0.02
2550.35046533 748.206 -1538.00570761 31.2315046282 75.8386197569 -29.3568178728 -1.1262 0.167865 0.197761 -1.12619 0.15494 0.208042 -1.1256 0.103099 0.23803 -1.12565 0.139398 0.218761 -10.6242 14.1786 2.88282 -10.8609 24.8784 6.56063 -0.0 0.0 -0.0 -3.68681 23.2543 -2.38729 -11.9127 -23.1301 73.1509 0.900041 -24.0296 0.191556 -13.5755 -0.670966 1.59679 -0.612926 -4.08922 -5.86754 -0.0 0.0 -0.0 2.0064 19.5136 -2.03643 6.36088 27.0269 -76.456 1.3159 33.097 -0.391014 53.5924 1.23783 6.4865 0.270907 3.41455 -0.377263 0.0 0.0 0.0 -3.68214 20.5092 -9.8636 -28.9771 0.0818857 4.39901 30.7592 -7.06372 -4.07436 -5.30548 0.0 0.0 -0.0 0.0 -0.0 14.2061 36.7816 -17.7858 -23.8755 -0.229533 -3.63027 41.5284 -15.9325 5.08281 -37.2882 0.0 0.0 0.0 0.0 0.0 
2543.17952804 751.459 -1532.98654873 29.8789282577 74.8451604828 -28.3565182195 -1.14609 0.199924 0.277554 -1.14606 0.181857 0.289713 -1.14509 0.110459 0.323735 -1.1452 0.1602 0.302227 -10.7584 14.4108 3.1927 -11.0053 25.1342 6.95294 -0.0 0.0 -0.0 -3.44483 23.0966 -2.08538 -12.1688 -22.2665 73.933 0.679472 -18.6028 0.111286 -13.2711 -0.651831 1.56287 -0.602128 -3.04076 -5.3408 -0.0 0.0 -0.0 2.25976 18.5244 -2.67976 7.02611 25.9347 -76.3848 1.49384 36.4992 -0.492606 52.1889 1.12994 6.3427 0.511326 4.81808 -1.40442 0.0 0.0 0.0 -1.02727 20.5596 -10.3698 -28.0257 0.114609 4.25667 32.2524 -2.77245 -4.17129 -5.19916 0.0 0.0 -0.0 0.0 -0.0 13.5122 39.3408 -17.6342 -22.734 -0.253157 -3.45669 41.7467 -14.2301 5.0744 -36.9023 0.0 0.0 0.0 0.0 0.0 
2537.67035108 752.414 -1525.34838469 29.3458317483 74.3458219963 -27.924994646 -1.10565 0.237436 0.484284 -1.10555 0.206139 0.498411 -1.10361 0.0865484 0.532368 -1.10396 0.169539 0.512018 -10.9388 14.6341 3.48146 -11.1996 25.3958 7.33387 -0.0 0.0 -0.0 -3.28294 22.9436 -1.89212 -12.1326 -21.6755 74.592 0.540045 -14.9773 0.0709901 -12.9619 -0.632578 1.5283 -0.645694 -2.23273 -5.28456 -0.0 0.0 -0.0 2.36459 18.209 -2.93562 7.38872 25.3215 -76.2545 1.5026 36.6595 -0.497827 51.3259 1.06536 6.25299 0.582159 5.1722 -1.73268 0.0 0.0 0.0 0.84219 20.471 -10.9018 -27.2566 0.13933 4.14123 33.0091 -0.562255 -4.22698 -5.16366 0.0 0.0 -0.0 0.0 -0.0 13.2583 41.0381 -17.9719 -24.0227 -0.226235 -3.65262 41.9152 -12.9916 5.07178 -36.906 0.0 0.0 0.0 0.0 0.0 
2532.98980287 752.216 -1527.88856931 23.7626509972 73.6340478866 -22.0371674278 -1.1054 0.271753 0.599513 -1.10523 0.233055 0.615589 -1.1025 0.085935 0.652594 -1.10305 0.187919 0.630833 -10.268 14.4181 4.68109 -10.4265 24.0822 8.26434 -0.0 0.0 -0.0 -3.2992 22.8837 -1.92718 -12.6351 -21.2595 74.5957 0.436157 -12.1921 0.0465815 -12.8378 -0.6249 1.51439 -0.63679 -0.445465 -4.44936 -0.0 0.0 -0.0 3.2653 18.765 -4.81303 8.91079 24.5908 -75.6237 1.56058 37.7037 -0.532872 50.1214 0.977515 6.12621 0.766472 5.13004 -2.99387 0.0 0.0 0.0 8.40431 23.0651 -15.0334 -22.7665 0.252531 3.46164 32.2766 3.67532 -4.12956 -4.99011 0.0 0.0 -0.0 0.0 -0.0 11.8721 40.9756 -16.4492 -17.5784 -0.316604 -2.66842 41.4227 -9.93885 4.99873 -36.5868 0.0 0.0 0.0 0.0 0.0 
2484.88500907 754.567 -1518.09951623 14.9431599792 70.2293465554 -11.2765905442 -1.19476 0.0981461 -0.339824 -1.1947 0.119571 -0.33289 -1.19539 0.193093 -0.296358 -1.19548 0.143865 -0.323134 -8.45169 14.0441 2.84625 -8.5349 24.3223 6.01335 -0.0 0.0 -0.0 -3.28674 23.0441 -1.87663 -8.3175 -22.2652 76.3892 0.556955 -15.4243 0.0754241 -14.1929 -0.710341 1.66531 -0.0143438 12.6081 5.10139 -0.0 0.0 -0.0 4.02813 16.4145 -6.65742 -2.80617 22.6931 -69.559 1.73519 40.6775 -0.643243 49.6393 0.943112 6.07496 1.59254 4.27609 -8.94992 0.0 0.0 0.0 6.6222 36.8147 -13.308 -3.10065 0.115188 0.461851 29.9054 13.2234 -3.90752 -8.9983 0.0 0.0 -0.0 0.0 -0.0 11.0498 39.0008 -15.0335 -7.2364 -0.229601 -1.0861 37.061 -20.687 4.76301 -36.0343 0.0 0.0 0.0 0.0 0.0 
2484.66201986 754.567 -1516.47951387 15.1569003428 70.5128538938 -11.5035173634 -1.19476 0.0981461 -0.339824 -1.1947 0.119571 -0.33289 -1.19539 0.193093 -0.296358 -1.19548 0.143865 -0.323134 -8.45169 14.0441 2.84625 -8.5349 24.3223 6.01335 -0.0 0.0 -0.0 -3.28674 23.0441 -1.87663 -8.3175 -22.2652 76.3892 0.556955 -15.4243 0.0754241 -14.1929 -0.710341 1.66531 -0.0143438 12.6081 5.10139 -0.0 0.0 -0.0 4.02813 16.4145 -6.65742 -2.80617 22.6931 -69.559 1.73519 40.6775 -0.643243 49.6393 0.943112 6.07496 1.59254 4.27609 -8.94992 0.0 0.0 0.0 6.6222 36.8147 -13.308 -3.10065 0.115188 0.461851 29.9054 13.2234 -3.90752 -8.9983 0.0 0.0 -0.0 0.0 -0.0 11.0498 39.0008 -15.0335 -7.2364 -0.229601 -1.0861 37.061 -20.687 4.76301 -36.0343 0.0 0.0 0.0 0.0 0.0 
2484.44213042 754.567 -1514.81828684 15.382613935 70.8030705741 -11.7427318944 -1.19476 0.0981461 -0.339824 -1.1947 0.119571 -0.33289 -1.19539 0.193093 -0.296358 -1.19548 0.143865 -0.323134 -8.45169 14.0441 2.84625 -8.5349 24.3223 6.01335 -0.0 0.0 -0.0 -3.28674 23.0441 -1.87663 -8.3175 -22.2652 76.3892 0.556955 -15.4243 0.0754241 -14.1929 -0.710341 1.66531 -0.0143438 12.6081 5.10139 -0.0 0.0 -0.0 4.02813 16.4145 -6.65742 -2.80617 22.6931 -69.559 1.73519 40.6775 -0.643243 49.6393 0.943112 6.07496 1.59254 4.27609 -8.94992 0.0 0.0 0.0 6.6222 36.8147 -13.308 -3.10065 0.115188 0.461851 29.9054 13.2234 -3.90752 -8.9983 0.0 0.0 -0.0 0.0 -0.0 11.0498 39.0008 -15.0335 -7.2364 -0.229601 -1.0861 37.061 -20.687 4.76301 -36.0343 0.0 0.0 0.0 0.0 0.0 
2483.97918964 754.567 -1511.07560274 15.9169393475 71.455016565 -12.307399406 -1.19476 0.0981461 -0.339824 -1.1947 0.119571 -0.33289 -1.19539 0.193093 -0.296358 -1.19548 0.143865 -0.323134 -8.45169 14.0441 2.84625 -8.5349 24.3223 6.01335 -0.0 0.0 -0.0 -3.28674 23.0441 -1.87663 -8.3175 -22.2652 76.3892 0.556955 -15.4243 0.0754241 -14.1929 -0.710341 1.66531 -0.0143438 12.6081 5.10139 -0.0 0.0 -0.0 4.02813 16.4145 -6.65742 -2.80617 22.6931 -69.559 1.73519 40.6775 -0.643243 49.6393 0.943112 6.07496 1.59254 4.27609 -8.94992 0.0 0.0 0.0 6.6222 36.8147 -13.308 -3.10065 0.115188 0.461851 29.9054 13.2234 -3.90752 -8.9983 0.0 0.0 -0.0 0.0 -0.0 11.0498 39.0008 -15.0335 -7.2364 -0.229601 -1.0861 37.061 -20.687 4.76301 -36.0343 0.0 0.0 0.0 0.0 0.0 
